<svg width="310" height="310" viewBox="0 0 310 310" fill="none" xmlns="http://www.w3.org/2000/svg">
<circle cx="154.989" cy="154.886" r="143.811" stroke="#D8DEE1" stroke-width="5.86986"/>
<path d="M190.479 70.3372C190.479 62.0168 183.707 54.4346 174.907 54.8575C166.794 55.2516 160.136 61.121 159.491 69.0759C158.853 61.121 152.203 54.8575 144.076 54.8575C135.526 54.8575 128.596 61.7875 128.596 70.3372C128.596 70.3372 126.439 92.7829 159.42 107.754H159.534H159.649C192.629 92.79 190.479 70.3372 190.479 70.3372Z" fill="#F8796B"/>
<path d="M156.746 94.1796C156.739 94.1796 156.739 94.1796 156.732 94.1796C156.624 94.1725 156.524 94.1008 156.503 93.9933L150.927 72.0637L146.168 78.7931C146.118 78.8576 146.047 78.9006 145.961 78.9006H129.771C129.635 78.9006 129.521 78.7859 129.521 78.6497C129.521 78.5136 129.635 78.3989 129.771 78.3989H145.832L150.834 71.3327C150.891 71.2538 150.992 71.2109 151.085 71.2324C151.178 71.2467 151.257 71.3255 151.285 71.4187L156.789 93.0688L161.842 78.5637C161.877 78.4634 161.971 78.3989 162.078 78.3989H169.381L173.638 65.4418C173.674 65.3343 173.781 65.2626 173.896 65.2698C174.01 65.2769 174.104 65.3701 174.125 65.4848L176.942 85.7876L180.89 78.5279C180.933 78.4491 181.019 78.3989 181.113 78.3989H189.067C189.204 78.3989 189.318 78.5136 189.318 78.6497C189.318 78.7859 189.204 78.9006 189.067 78.9006H181.249L177.006 86.6978C176.956 86.7909 176.848 86.8411 176.741 86.8268C176.633 86.8053 176.555 86.7193 176.54 86.6118L173.774 66.6243L169.797 78.7214C169.761 78.8217 169.668 78.8934 169.56 78.8934H162.25L156.983 94.0148C156.947 94.1152 156.854 94.1796 156.746 94.1796Z" fill="white"/>
<path d="M237.439 122.927H69.2217V232.211H237.439V122.927Z" fill="#B4D2E0"/>
<path d="M143.604 167.556H34.3193L69.2216 122.927H178.506L143.604 167.556Z" fill="#57636B"/>
<path d="M237.439 122.927H178.506V232.211H237.439V122.927Z" fill="#57636B"/>
<path d="M213.408 167.556H272.342L237.439 122.927H178.506L213.408 167.556Z" fill="#B4D2E0"/>
</svg>
