<svg width="340" height="339" viewBox="0 0 340 339" fill="none" xmlns="http://www.w3.org/2000/svg">
<g filter="url(#filter0_d)">
<circle cx="170.123" cy="165.713" r="154.573" fill="#FBFBFB"/>
</g>
<circle cx="170.123" cy="165.713" r="143.811" stroke="#FCC100" stroke-width="5.86986"/>
<path d="M205.479 81.3372C205.479 73.0168 198.707 65.4346 189.907 65.8575C181.794 66.2516 175.136 72.121 174.491 80.0759C173.853 72.121 167.203 65.8575 159.076 65.8575C150.526 65.8575 143.596 72.7875 143.596 81.3372C143.596 81.3372 141.439 103.783 174.42 118.754H174.534H174.649C207.629 103.79 205.479 81.3372 205.479 81.3372Z" fill="#F8796B"/>
<path d="M171.746 105.18C171.739 105.18 171.739 105.18 171.732 105.18C171.624 105.172 171.524 105.101 171.503 104.993L165.927 83.0637L161.168 89.7931C161.118 89.8576 161.047 89.9006 160.961 89.9006H144.771C144.635 89.9006 144.521 89.7859 144.521 89.6497C144.521 89.5136 144.635 89.3989 144.771 89.3989H160.832L165.834 82.3327C165.891 82.2538 165.992 82.2109 166.085 82.2324C166.178 82.2467 166.257 82.3255 166.285 82.4187L171.789 104.069L176.842 89.5637C176.877 89.4634 176.971 89.3989 177.078 89.3989H184.381L188.638 76.4418C188.674 76.3343 188.781 76.2626 188.896 76.2698C189.01 76.2769 189.104 76.3701 189.125 76.4848L191.942 96.7876L195.89 89.5279C195.933 89.4491 196.019 89.3989 196.113 89.3989H204.067C204.204 89.3989 204.318 89.5136 204.318 89.6497C204.318 89.7859 204.204 89.9006 204.067 89.9006H196.249L192.006 97.6978C191.956 97.7909 191.848 97.8411 191.741 97.8268C191.633 97.8053 191.555 97.7193 191.54 97.6118L188.774 77.6243L184.797 89.7214C184.761 89.8217 184.668 89.8934 184.56 89.8934H177.25L171.983 105.015C171.947 105.115 171.854 105.18 171.746 105.18Z" fill="white"/>
<path d="M252.439 133.927H84.2217V243.211H252.439V133.927Z" fill="#B4D2E0"/>
<path d="M158.604 178.556H49.3193L84.2216 133.927H193.506L158.604 178.556Z" fill="#57636B"/>
<path d="M252.439 133.927H193.506V243.211H252.439V133.927Z" fill="#57636B"/>
<path d="M228.408 178.556H287.342L252.439 133.927H193.506L228.408 178.556Z" fill="#B4D2E0"/>
<defs>
<filter id="filter0_d" x="0.875167" y="0.378492" width="338.495" height="338.495" filterUnits="userSpaceOnUse" color-interpolation-filters="sRGB">
<feFlood flood-opacity="0" result="BackgroundImageFix"/>
<feColorMatrix in="SourceAlpha" type="matrix" values="0 0 0 0 0 0 0 0 0 0 0 0 0 0 0 0 0 0 127 0"/>
<feOffset dy="3.91324"/>
<feGaussianBlur stdDeviation="7.33732"/>
<feColorMatrix type="matrix" values="0 0 0 0 0 0 0 0 0 0 0 0 0 0 0 0 0 0 0.25 0"/>
<feBlend mode="normal" in2="BackgroundImageFix" result="effect1_dropShadow"/>
<feBlend mode="normal" in="SourceGraphic" in2="effect1_dropShadow" result="shape"/>
</filter>
</defs>
</svg>
