<svg width="310" height="310" viewBox="0 0 310 310" fill="none" xmlns="http://www.w3.org/2000/svg">
<circle cx="154.596" cy="154.886" r="143.811" stroke="#D8DEE1" stroke-width="5.86986"/>
<path d="M221.015 137.336C221.015 106.725 196.219 81.9287 165.608 81.9287C134.997 81.9287 110.201 106.725 110.201 137.336C110.201 147.14 112.766 156.318 117.269 164.355L117.383 164.469C119.664 168.516 165.665 229.339 165.665 229.339C165.665 229.339 211.61 168.516 213.947 164.469L214.061 164.355C218.393 156.318 221.015 147.14 221.015 137.336ZM165.722 175.129H165.608H165.494C125.421 156.945 128.043 129.64 128.043 129.64C128.043 119.266 136.479 110.829 146.854 110.829C156.716 110.829 164.81 118.468 165.608 128.101C166.406 118.411 174.501 111.285 184.362 110.829C195.079 110.316 203.287 119.551 203.287 129.64C203.23 129.64 205.852 156.945 165.722 175.129Z" fill="#57636B"/>
<path d="M110.202 215.317C129.091 215.317 144.404 200.004 144.404 181.115C144.404 162.226 129.091 146.913 110.202 146.913C91.3127 146.913 76 162.226 76 181.115C76 200.004 91.3127 215.317 110.202 215.317Z" fill="#F8796B"/>
<path d="M114.95 161.421H105.431V200.783H114.95V161.421Z" fill="white"/>
<path d="M129.891 185.859V176.339H90.5294V185.859H129.891Z" fill="white"/>
</svg>
