<svg width="310" height="310" viewBox="0 0 310 310" fill="none" xmlns="http://www.w3.org/2000/svg">
<circle cx="155.293" cy="154.886" r="143.811" stroke="#D8DEE1" stroke-width="5.86986"/>
<path d="M83.6728 161.704L74.4395 152.471L154.893 71.9612L235.515 152.527L226.226 161.817L154.893 90.484L83.6728 161.704Z" fill="#F8796B"/>
<path d="M218.907 227.801H90.9922V159.902L154.95 95.5508L218.907 159.902V227.801Z" fill="#57636B"/>
<path d="M191.6 168.009C191.6 158.157 183.549 149.148 173.134 149.655C163.506 150.106 155.624 157.087 154.892 166.489C154.16 157.087 146.278 149.655 136.651 149.655C126.517 149.655 118.297 157.875 118.297 168.009C118.297 168.009 115.764 194.583 154.836 212.318H154.949H155.061C194.19 194.583 191.6 168.009 191.6 168.009Z" fill="#F8796B"/>
</svg>
