<svg width="340" height="339" viewBox="0 0 340 339" fill="none" xmlns="http://www.w3.org/2000/svg">
<g filter="url(#filter0_d)">
<circle cx="170.123" cy="165.713" r="154.573" fill="#FBFBFB"/>
</g>
<circle cx="170.123" cy="165.713" r="143.811" stroke="#FCC100" stroke-width="5.86986"/>
<path d="M98.6728 172.704L89.4395 163.471L169.893 82.9612L250.515 163.527L241.226 172.817L169.893 101.484L98.6728 172.704Z" fill="#F8796B"/>
<path d="M233.907 238.801H105.992V170.902L169.95 106.551L233.907 170.902V238.801Z" fill="#57636B"/>
<path d="M206.6 179.009C206.6 169.157 198.549 160.148 188.134 160.655C178.506 161.106 170.624 168.087 169.892 177.489C169.16 168.087 161.278 160.655 151.651 160.655C141.517 160.655 133.297 168.875 133.297 179.009C133.297 179.009 130.764 205.583 169.836 223.318H169.949H170.061C209.19 205.583 206.6 179.009 206.6 179.009Z" fill="#F8796B"/>
<defs>
<filter id="filter0_d" x="0.875167" y="0.378492" width="338.495" height="338.495" filterUnits="userSpaceOnUse" color-interpolation-filters="sRGB">
<feFlood flood-opacity="0" result="BackgroundImageFix"/>
<feColorMatrix in="SourceAlpha" type="matrix" values="0 0 0 0 0 0 0 0 0 0 0 0 0 0 0 0 0 0 127 0"/>
<feOffset dy="3.91324"/>
<feGaussianBlur stdDeviation="7.33732"/>
<feColorMatrix type="matrix" values="0 0 0 0 0 0 0 0 0 0 0 0 0 0 0 0 0 0 0.25 0"/>
<feBlend mode="normal" in2="BackgroundImageFix" result="effect1_dropShadow"/>
<feBlend mode="normal" in="SourceGraphic" in2="effect1_dropShadow" result="shape"/>
</filter>
</defs>
</svg>
