<svg width="34" height="34" viewBox="0 0 34 34" fill="none" xmlns="http://www.w3.org/2000/svg">
<path d="M24.0547 0.00549316H10.6545C8.03758 0.00916544 5.52892 1.05035 3.67849 2.90078C1.82806 4.75121 0.786875 7.25987 0.783203 9.87677L0.783203 23.2739C0.786875 25.8908 1.82806 28.3995 3.67849 30.2499C5.52892 32.1004 8.03758 33.1415 10.6545 33.1452H24.0516C26.6685 33.1415 29.1772 32.1004 31.0276 30.2499C32.8781 28.3995 33.9193 25.8908 33.9229 23.2739V9.87677C33.9193 7.25987 32.8781 4.75121 31.0276 2.90078C29.1772 1.05035 26.6685 0.00916544 24.0516 0.00549316L24.0547 0.00549316ZM30.5945 23.277C30.5945 24.1358 30.4253 24.9862 30.0966 25.7797C29.768 26.5731 29.2863 27.294 28.679 27.9013C28.0717 28.5086 27.3508 28.9903 26.5574 29.3189C25.7639 29.6476 24.9135 29.8167 24.0547 29.8167H10.6545C8.92004 29.8167 7.25663 29.1277 6.0302 27.9013C4.80376 26.6749 4.11476 25.0115 4.11476 23.277V9.87677C4.11558 8.14286 4.80494 6.48025 6.03129 5.25448C7.25764 4.02871 8.92057 3.34013 10.6545 3.34013H24.0516C24.9105 3.33973 25.7609 3.50848 26.5545 3.83676C27.3481 4.16504 28.0693 4.64641 28.6768 5.25339C29.2844 5.86037 29.7664 6.58108 30.0955 7.37436C30.4245 8.16764 30.594 9.01796 30.5945 9.87677V23.2739V23.277Z" fill="white"/>
<path d="M17.3565 8.00537C15.6608 8.00446 14.0029 8.50645 12.5926 9.44786C11.1822 10.3893 10.0827 11.7278 9.43318 13.2942C8.78363 14.8605 8.6132 16.5843 8.94346 18.2475C9.27371 19.9108 10.0898 21.4387 11.2885 22.6381C12.4872 23.8374 14.0147 24.6543 15.6778 24.9855C17.3408 25.3166 19.0647 25.1471 20.6314 24.4984C22.1981 23.8497 23.5372 22.751 24.4794 21.3411C25.4216 19.9313 25.9245 18.2737 25.9245 16.578C25.922 14.3051 25.0181 12.1261 23.4109 10.5189C21.8038 8.91179 19.6247 8.00782 17.3519 8.00537H17.3565ZM17.3565 21.8159C16.3193 21.8159 15.3054 21.5083 14.443 20.9321C13.5806 20.3559 12.9085 19.5369 12.5116 18.5786C12.1147 17.6204 12.0108 16.566 12.2132 15.5487C12.4155 14.5315 12.915 13.597 13.6484 12.8636C14.3818 12.1302 15.3162 11.6308 16.3334 11.4284C17.3507 11.2261 18.4051 11.3299 19.3633 11.7269C20.3216 12.1238 21.1406 12.7959 21.7168 13.6583C22.2931 14.5207 22.6006 15.5346 22.6006 16.5718C22.6006 17.2605 22.465 17.9424 22.2014 18.5786C21.9379 19.2149 21.5516 19.793 21.0647 20.2799C20.5777 20.7669 19.9996 21.1532 19.3633 21.4167C18.7271 21.6803 18.0452 21.8159 17.3565 21.8159Z" fill="white"/>
<path d="M28.0005 8.07034C28.0014 8.47687 27.8817 8.87453 27.6565 9.21299C27.4313 9.55146 27.1108 9.8155 26.7355 9.97171C26.3602 10.1279 25.9469 10.1693 25.5481 10.0905C25.1493 10.0118 24.7828 9.81646 24.495 9.52933C24.2072 9.24219 24.0111 8.87613 23.9314 8.47748C23.8518 8.07883 23.8922 7.6655 24.0475 7.28983C24.2029 6.91416 24.4662 6.59302 24.8042 6.36707C25.1421 6.14112 25.5395 6.02051 25.9461 6.02051C26.4908 6.02092 27.0131 6.2375 27.3983 6.6227C27.7835 7.00789 28.0001 7.53022 28.0005 8.07497V8.07034Z" fill="white"/>
<path d="M24.0551 0.00512695H17.2871V3.33977H24.0505C24.9094 3.33916 25.7601 3.50776 26.5538 3.83595C27.3476 4.16414 28.0689 4.64548 28.6767 5.25248C29.2844 5.85948 29.7666 6.58026 30.0957 7.37364C30.4248 8.16702 30.5944 9.01746 30.5948 9.8764V23.2736C30.5948 24.1324 30.4257 24.9828 30.097 25.7762C29.7684 26.5697 29.2867 27.2906 28.6794 27.8979C28.0721 28.5051 27.3512 28.9868 26.5577 29.3155C25.7643 29.6441 24.9139 29.8133 24.0551 29.8133H17.2871V33.151H24.0505C26.6674 33.1473 29.176 32.1062 31.0265 30.2557C32.8769 28.4053 33.9181 25.8966 33.9218 23.2797V9.8764C33.9181 7.2603 32.8775 4.75234 31.0281 2.90204C29.1787 1.05175 26.6712 0.0100227 24.0551 0.00512695V0.00512695Z" fill="white"/>
<path d="M17.3565 8.00548H17.2871V11.3417H17.3519C18.6971 11.407 19.9656 11.9873 20.8946 12.9625C21.8235 13.9376 22.3417 15.2328 22.3417 16.5796C22.3417 17.9264 21.8235 19.2216 20.8946 20.1967C19.9656 21.1719 18.6971 21.7522 17.3519 21.8176H17.2871V25.146H17.3519C19.6255 25.146 21.806 24.2428 23.4136 22.6352C25.0213 21.0275 25.9245 18.847 25.9245 16.5734C25.9245 14.2998 25.0213 12.1194 23.4136 10.5117C21.806 8.90403 19.6255 8.00085 17.3519 8.00085L17.3565 8.00548Z" fill="white"/>
</svg>
