<svg width="33" height="34" viewBox="0 0 33 34" fill="none" xmlns="http://www.w3.org/2000/svg">
<path d="M30.0176 0.220949H2.98855C2.59624 0.220545 2.20769 0.297462 1.84512 0.447302C1.48255 0.597142 1.15307 0.816966 0.875514 1.09421C0.597961 1.37145 0.377778 1.70067 0.227551 2.06305C0.0773247 2.42544 1.3725e-06 2.81387 1.58012e-06 3.20615V30.2327C-0.000402039 30.625 0.0765218 31.0135 0.226376 31.376C0.376229 31.7385 0.596074 32.068 0.873342 32.3455C1.15061 32.623 1.47986 32.8432 1.84228 32.9934C2.20469 33.1436 2.59316 33.2209 2.98548 33.2209H30.0145C30.8063 33.2209 31.5657 32.9064 32.1256 32.3466C32.6855 31.7868 33 31.0275 33 30.2357V3.20922C33.0004 2.8172 32.9236 2.42894 32.7739 2.0666C32.6243 1.70426 32.4047 1.37495 32.1277 1.09747C31.8508 0.819979 31.5219 0.599752 31.1599 0.449359C30.7978 0.298966 30.4097 0.221352 30.0176 0.220949ZM10.2127 28.7155C10.2129 28.8297 10.1905 28.9428 10.1469 29.0484C10.1033 29.1539 10.0393 29.2498 9.95854 29.3305C9.87778 29.4113 9.78188 29.4753 9.67633 29.5189C9.57078 29.5625 9.45765 29.5849 9.34345 29.5847H5.64538C5.41498 29.5842 5.19412 29.4925 5.0312 29.3296C4.86827 29.1667 4.77656 28.9459 4.77616 28.7155V13.2136C4.77818 12.9845 4.87065 12.7654 5.03345 12.604C5.19624 12.4427 5.41617 12.3522 5.64538 12.3522H9.34345C9.45753 12.352 9.57052 12.3743 9.67597 12.4178C9.78142 12.4613 9.87726 12.5252 9.95799 12.6057C10.0387 12.6863 10.1028 12.782 10.1465 12.8874C10.1902 12.9928 10.2127 13.1057 10.2127 13.2198V28.7293V28.7155ZM7.49442 10.8841C6.79946 10.8841 6.12011 10.6781 5.54227 10.292C4.96443 9.90595 4.51406 9.35723 4.24811 8.71523C3.98216 8.07323 3.91258 7.3668 4.04816 6.68525C4.18374 6.00371 4.51839 5.37767 5.0098 4.88631C5.50121 4.39495 6.12731 4.06032 6.80891 3.92475C7.49052 3.78919 8.19702 3.85877 8.83908 4.12469C9.48114 4.39061 10.0299 4.84094 10.416 5.41873C10.8021 5.99651 11.0082 6.6758 11.0082 7.37069C11.0084 7.83214 10.9176 8.28911 10.7411 8.71547C10.5646 9.14183 10.3058 9.52923 9.97948 9.85553C9.65316 10.1818 9.26572 10.4406 8.83932 10.6171C8.41292 10.7936 7.95591 10.8843 7.49442 10.8841ZM29.54 28.7831C29.54 28.9948 29.4558 29.198 29.3061 29.3477C29.1563 29.4975 28.9532 29.5816 28.7414 29.5816H24.7715C24.5597 29.5816 24.3566 29.4975 24.2068 29.3477C24.0571 29.198 23.9729 28.9948 23.9729 28.7831V21.5135C23.9729 20.4294 24.2923 16.7609 21.1395 16.7609C18.693 16.7609 18.197 19.2716 18.0972 20.3987V28.7831C18.0974 28.8881 18.0769 28.9921 18.0368 29.0891C17.9968 29.1862 17.938 29.2744 17.8638 29.3487C17.7896 29.423 17.7015 29.482 17.6045 29.5222C17.5076 29.5624 17.4036 29.5831 17.2986 29.5831H13.4592C13.2473 29.5827 13.0442 29.4982 12.8945 29.3482C12.7447 29.1983 12.6606 28.995 12.6606 28.7831V13.1445C12.6627 12.9337 12.7479 12.7322 12.8977 12.5838C13.0475 12.4354 13.2499 12.3522 13.4608 12.3522H17.3001C17.4051 12.3522 17.5091 12.3729 17.6061 12.4131C17.7031 12.4533 17.7912 12.5123 17.8654 12.5866C17.9395 12.6609 17.9983 12.7491 18.0384 12.8462C18.0784 12.9432 18.0989 13.0472 18.0987 13.1522V14.502C19.0063 13.1415 20.3532 12.0911 23.2235 12.0911C29.5768 12.0911 29.5415 18.0277 29.5415 21.2894V28.7831H29.54Z" fill="white"/>
</svg>
