<svg width="339" height="339" viewBox="0 0 339 339" fill="none" xmlns="http://www.w3.org/2000/svg">
<g filter="url(#filter0_d)">
<circle cx="169.664" cy="165.713" r="154.573" fill="#FBFBFB"/>
</g>
<circle cx="169.664" cy="165.713" r="143.811" stroke="#FCC100" stroke-width="5.86986"/>
<path d="M184.86 199.277H155.783C152.953 199.277 150.637 196.961 150.637 194.131V116.978C150.637 114.147 152.953 111.832 155.783 111.832H277.023C279.854 111.832 282.17 114.147 282.17 116.978V194.131C282.17 196.961 279.854 199.277 277.023 199.277H230.234L184.86 219.477V199.277Z" fill="#57636B"/>
<path d="M246.788 138.336H134.64C133.354 138.336 132.324 137.307 132.324 136.02C132.324 134.733 133.354 133.704 134.64 133.704H246.788C248.075 133.704 249.104 134.733 249.104 136.02C249.104 137.307 248.075 138.336 246.788 138.336Z" fill="#B4D2E0"/>
<path d="M246.788 156.263H134.64C133.354 156.263 132.324 155.233 132.324 153.947C132.324 152.66 133.354 151.631 134.64 151.631H246.788C248.075 151.631 249.104 152.66 249.104 153.947C249.104 155.233 248.075 156.263 246.788 156.263Z" fill="#B4D2E0"/>
<path d="M246.788 174.231H134.64C133.354 174.231 132.324 173.202 132.324 171.915C132.324 170.629 133.354 169.6 134.64 169.6H246.788C248.075 169.6 249.104 170.629 249.104 171.915C249.104 173.202 248.075 174.231 246.788 174.231Z" fill="#B4D2E0"/>
<path d="M51.6973 151.802L51.7402 225.866L107.192 191.429C109.294 190.142 109.294 187.483 107.192 186.196L51.6973 151.802Z" fill="#F8796B"/>
<path d="M171.093 151.715L171.136 225.78L115.641 191.428C113.539 190.142 113.539 187.483 115.641 186.196L171.093 151.715Z" fill="#F8796B"/>
<path d="M51.6973 151.802L51.7402 225.866L107.192 191.429C109.294 190.142 109.294 187.483 107.192 186.196L51.6973 151.802Z" fill="#EDEDED"/>
<path d="M171.093 151.715L171.136 225.78L115.641 191.428C113.539 190.142 113.539 187.483 115.641 186.196L171.093 151.715Z" fill="#EDEDED"/>
<path d="M108.651 189.112L51.7402 225.866L171.136 225.823L114.183 189.112C112.553 188.04 110.28 188.04 108.651 189.112Z" fill="#F8796B"/>
<path d="M108.651 189.112L51.7402 225.866L171.136 225.823L114.183 189.112C112.553 188.04 110.28 188.04 108.651 189.112Z" fill="#D9D9D9"/>
<path d="M51.6973 151.8L111.438 195.502L171.093 151.714L51.6973 151.8Z" fill="#F8796B"/>
<defs>
<filter id="filter0_d" x="0.416183" y="0.378492" width="338.495" height="338.495" filterUnits="userSpaceOnUse" color-interpolation-filters="sRGB">
<feFlood flood-opacity="0" result="BackgroundImageFix"/>
<feColorMatrix in="SourceAlpha" type="matrix" values="0 0 0 0 0 0 0 0 0 0 0 0 0 0 0 0 0 0 127 0"/>
<feOffset dy="3.91324"/>
<feGaussianBlur stdDeviation="7.33732"/>
<feColorMatrix type="matrix" values="0 0 0 0 0 0 0 0 0 0 0 0 0 0 0 0 0 0 0.25 0"/>
<feBlend mode="normal" in2="BackgroundImageFix" result="effect1_dropShadow"/>
<feBlend mode="normal" in="SourceGraphic" in2="effect1_dropShadow" result="shape"/>
</filter>
</defs>
</svg>
