<svg width="310" height="310" viewBox="0 0 310 310" fill="none" xmlns="http://www.w3.org/2000/svg">
<circle cx="154.293" cy="154.888" r="143.811" stroke="#D8DEE1" stroke-width="5.86986"/>
<path d="M169.86 188.277H140.783C137.953 188.277 135.637 185.961 135.637 183.131V105.978C135.637 103.147 137.953 100.832 140.783 100.832H262.023C264.854 100.832 267.17 103.147 267.17 105.978V183.131C267.17 185.961 264.854 188.277 262.023 188.277H215.234L169.86 208.477V188.277Z" fill="#57636B"/>
<path d="M231.788 127.336H119.64C118.354 127.336 117.324 126.307 117.324 125.02C117.324 123.733 118.354 122.704 119.64 122.704H231.788C233.075 122.704 234.104 123.733 234.104 125.02C234.104 126.307 233.075 127.336 231.788 127.336Z" fill="#B4D2E0"/>
<path d="M231.788 145.263H119.64C118.354 145.263 117.324 144.233 117.324 142.947C117.324 141.66 118.354 140.631 119.64 140.631H231.788C233.075 140.631 234.104 141.66 234.104 142.947C234.104 144.233 233.075 145.263 231.788 145.263Z" fill="#B4D2E0"/>
<path d="M231.788 163.231H119.64C118.354 163.231 117.324 162.202 117.324 160.915C117.324 159.629 118.354 158.6 119.64 158.6H231.788C233.075 158.6 234.104 159.629 234.104 160.915C234.104 162.202 233.075 163.231 231.788 163.231Z" fill="#B4D2E0"/>
<path d="M36.6973 140.802L36.7402 214.866L92.1924 180.429C94.2938 179.142 94.2938 176.483 92.1924 175.196L36.6973 140.802Z" fill="#F8796B"/>
<path d="M156.093 140.715L156.136 214.78L100.641 180.428C98.5391 179.142 98.5391 176.483 100.641 175.196L156.093 140.715Z" fill="#F8796B"/>
<path d="M36.6973 140.802L36.7402 214.866L92.1924 180.429C94.2938 179.142 94.2938 176.483 92.1924 175.196L36.6973 140.802Z" fill="#EDEDED"/>
<path d="M156.093 140.715L156.136 214.78L100.641 180.428C98.5391 179.142 98.5391 176.483 100.641 175.196L156.093 140.715Z" fill="#EDEDED"/>
<path d="M93.6506 178.112L36.7402 214.866L156.136 214.823L99.183 178.112C97.5533 177.04 95.2803 177.04 93.6506 178.112Z" fill="#F8796B"/>
<path d="M93.6506 178.112L36.7402 214.866L156.136 214.823L99.183 178.112C97.5533 177.04 95.2803 177.04 93.6506 178.112Z" fill="#D9D9D9"/>
<path d="M36.6973 140.8L96.4382 184.502L156.093 140.714L36.6973 140.8Z" fill="#F8796B"/>
</svg>
