<svg width="34" height="29" viewBox="0 0 34 29" fill="none" xmlns="http://www.w3.org/2000/svg">
<path d="M32.8383 3.98812C32.1017 4.31489 31.3365 4.57304 30.5525 4.75931C31.4215 3.93519 32.0683 2.90487 32.4327 1.76399C32.4558 1.69185 32.4565 1.61438 32.4345 1.54187C32.4126 1.46935 32.3691 1.40523 32.3098 1.35803C32.2506 1.31082 32.1784 1.28276 32.1028 1.27759C32.0272 1.27241 31.9518 1.29036 31.8867 1.32904C30.7973 1.97507 29.6208 2.46126 28.3932 2.77272C28.3214 2.78997 28.2479 2.79877 28.1742 2.79894C27.9469 2.79969 27.7273 2.71679 27.5572 2.56604C26.2526 1.41623 24.5734 0.781737 22.8344 0.781494C22.0689 0.784093 21.3082 0.902128 20.5779 1.13162C19.4339 1.48764 18.4019 2.13443 17.5827 3.00874C16.7636 3.88305 16.1853 4.95497 15.9045 6.11969C15.6954 6.98027 15.638 7.87071 15.7348 8.75101C15.7389 8.78711 15.7352 8.82366 15.724 8.85823C15.7128 8.89281 15.6944 8.9246 15.67 8.95152C15.6451 8.97934 15.6147 9.00166 15.5807 9.01706C15.5468 9.03247 15.5099 9.04061 15.4726 9.04097H15.4479C12.9499 8.81413 10.5228 8.0881 8.31056 6.90594C6.09829 5.72377 4.14587 4.10951 2.56899 2.15885C2.53101 2.11099 2.48186 2.0732 2.42586 2.04878C2.36986 2.02435 2.30872 2.01405 2.24781 2.01877C2.1869 2.02349 2.12807 2.04309 2.0765 2.07585C2.02494 2.10861 1.9822 2.15353 1.95204 2.20666C1.15568 3.57871 0.837775 5.17647 1.04828 6.74886C1.25879 8.32125 1.98578 9.77912 3.115 10.8934C2.54509 10.7585 1.99649 10.5457 1.4847 10.261C1.42808 10.2299 1.36438 10.2139 1.29978 10.2147C1.23518 10.2155 1.17188 10.2329 1.11601 10.2653C1.06014 10.2978 1.0136 10.3441 0.98091 10.3998C0.948221 10.4555 0.930489 10.5188 0.929436 10.5834C0.912894 11.9687 1.29892 13.3291 2.04063 14.4993C2.78234 15.6695 3.84785 16.5992 5.10776 17.1755H4.95352C4.54982 17.175 4.14705 17.1368 3.75046 17.0614C3.68675 17.0493 3.621 17.0539 3.55963 17.0749C3.49825 17.0958 3.44335 17.1323 3.4003 17.1808C3.35725 17.2293 3.32752 17.2881 3.31401 17.3515C3.3005 17.4149 3.30367 17.4808 3.32322 17.5426C3.72742 18.7961 4.46932 19.9139 5.46739 20.7732C6.46546 21.6325 7.68109 22.2 8.98069 22.4135C6.79851 23.8813 4.22718 24.6628 1.59729 24.6576H0.77057C0.647959 24.6567 0.528569 24.6969 0.431527 24.7718C0.334485 24.8468 0.265407 24.9521 0.235362 25.071C0.206683 25.1905 0.217658 25.316 0.266629 25.4287C0.3156 25.5414 0.399909 25.6351 0.506822 25.6957C3.50004 27.4357 6.90044 28.3526 10.3627 28.3532C13.2665 28.3795 16.1409 27.7699 18.7841 26.5671C21.1405 25.4755 23.2421 23.9024 24.9537 21.9492C26.5876 20.0899 27.8664 17.9465 28.7263 15.6254C29.5601 13.4142 29.9946 11.0725 30.0096 8.70936V8.59985C30.0099 8.41803 30.0509 8.23859 30.1296 8.07471C30.2084 7.91082 30.3228 7.76666 30.4646 7.65283C31.5628 6.76175 32.5206 5.7104 33.3057 4.53412C33.3511 4.46681 33.3733 4.38653 33.369 4.30545C33.3647 4.22437 33.334 4.14692 33.2817 4.08483C33.2294 4.02274 33.1582 3.9794 33.079 3.96139C32.9999 3.94339 32.917 3.95168 32.843 3.98503L32.8383 3.98812Z" fill="white"/>
<path d="M32.8381 3.98812C32.1015 4.31489 31.3363 4.57304 30.5523 4.75931C31.4213 3.93519 32.068 2.90487 32.4324 1.76399C32.4556 1.69185 32.4562 1.61438 32.4343 1.54187C32.4123 1.46935 32.3688 1.40523 32.3096 1.35803C32.2503 1.31082 32.1781 1.28276 32.1025 1.27759C32.0269 1.27241 31.9516 1.29036 31.8864 1.32904C30.7972 1.97532 29.6206 2.46153 28.3929 2.77272C28.3212 2.78997 28.2477 2.79877 28.1739 2.79894C27.9466 2.79969 27.727 2.71679 27.5569 2.56604C26.2523 1.41623 24.5731 0.781737 22.8342 0.781494C22.0687 0.784093 21.3079 0.902128 20.5776 1.13162C18.9701 1.62985 17.5992 2.69694 16.7217 4.1331V27.3738C17.4233 27.1451 18.1109 26.8753 18.7808 26.5656C21.1373 25.4742 23.239 23.9011 24.9503 21.9477C26.5846 20.0884 27.8639 17.9449 28.7245 15.6239C29.5579 13.4121 29.9919 11.0698 30.0063 8.70628V8.59831C30.0066 8.41651 30.0477 8.2371 30.1264 8.07324C30.2052 7.90937 30.3196 7.7652 30.4613 7.65128C31.5595 6.76021 32.5172 5.70885 33.3023 4.53258C33.3461 4.46512 33.3669 4.38532 33.3617 4.30507C33.3564 4.22482 33.3254 4.14841 33.2732 4.08722C33.2211 4.02603 33.1505 3.98332 33.0721 3.96546C32.9937 3.94761 32.9116 3.95555 32.8381 3.98812Z" fill="white"/>
</svg>
